<svg xmlns="http://www.w3.org/2000/svg" viewBox="0 0 800 520">
  <defs>
    <linearGradient id="board" x1="0" x2="0" y1="0" y2="1">
      <stop offset="0%" stop-color="#2c7a7b"/>
      <stop offset="100%" stop-color="#234e52"/>
    </linearGradient>
    <style>
      .label { font-family: 'DejaVu Sans', Arial, sans-serif; fill: #f7fafc; font-size: 22px; font-weight: 600; }
      .pin { font-family: 'DejaVu Sans Mono', monospace; fill: #edf2f7; font-size: 18px; }
    </style>
  </defs>
  <rect x="80" y="40" width="640" height="440" rx="32" fill="url(#board)" stroke="#1a202c" stroke-width="6"/>
  <rect x="120" y="360" width="560" height="80" rx="16" fill="#2d3748" stroke="#a0aec0" stroke-width="4"/>
  <rect x="220" y="100" width="360" height="200" rx="24" fill="#1a365d" stroke="#90cdf4" stroke-width="5"/>
  <rect x="240" y="120" width="120" height="160" rx="16" fill="#2a4365" stroke="#bee3f8" stroke-width="3"/>
  <rect x="380" y="120" width="160" height="160" rx="16" fill="#2a4365" stroke="#bee3f8" stroke-width="3"/>
  <rect x="540" y="120" width="100" height="180" rx="16" fill="#22543d" stroke="#68d391" stroke-width="3"/>
  <rect x="140" y="80" width="40" height="360" rx="8" fill="#4a5568" stroke="#cbd5e0" stroke-width="2"/>
  <rect x="620" y="80" width="40" height="360" rx="8" fill="#4a5568" stroke="#cbd5e0" stroke-width="2"/>
  <circle cx="180" cy="120" r="16" fill="#1a202c" stroke="#f6ad55" stroke-width="4"/>
  <circle cx="180" cy="200" r="16" fill="#1a202c" stroke="#f6ad55" stroke-width="4"/>
  <circle cx="180" cy="280" r="16" fill="#1a202c" stroke="#f6ad55" stroke-width="4"/>
  <circle cx="180" cy="360" r="16" fill="#1a202c" stroke="#f6ad55" stroke-width="4"/>
  <circle cx="620" cy="120" r="16" fill="#1a202c" stroke="#f6ad55" stroke-width="4"/>
  <circle cx="620" cy="200" r="16" fill="#1a202c" stroke="#f6ad55" stroke-width="4"/>
  <circle cx="620" cy="280" r="16" fill="#1a202c" stroke="#f6ad55" stroke-width="4"/>
  <circle cx="620" cy="360" r="16" fill="#1a202c" stroke="#f6ad55" stroke-width="4"/>
  <text x="400" y="80" text-anchor="middle" class="label">ESP32-C6 DevKit (вид спереди)</text>
  <text x="300" y="190" class="label">ESP32-C6</text>
  <text x="410" y="200" class="pin">Wi-Fi 6 / BLE 5</text>
  <text x="410" y="232" class="pin">RISC-V 160 MHz</text>
  <text x="410" y="264" class="pin">Flash 8 MB</text>
  <text x="410" y="296" class="pin">PSRAM 8 MB</text>
  <text x="550" y="200" class="pin">USB-C</text>
  <text x="550" y="232" class="pin">UART Bridge</text>
  <text x="550" y="264" class="pin">5V Regulator</text>
  <text x="120" y="430" class="pin">40-pin headers with GPIO / SPI / I2C / PWM</text>
  <text x="400" y="420" text-anchor="middle" class="label">Пины GPIO</text>
  <text x="400" y="480" text-anchor="middle" class="pin">Схематичная иллюстрация платы для сборки терморегулятора</text>
</svg>
